{"asset":{"copyright":"","generator":"Source 2 Viewer 19.2.0.0 - https://valveresourceformat.github.io","version":"2.0"},"accessors":[{"bufferView":0,"componentType":5126,"count":5799,"max":[9.294053077697754,40.795406341552734,116.34259796142578],"min":[-52.74972915649414,-40.79530334472656,0.5909070372581482],"type":"VEC3"},{"bufferView":1,"componentType":5126,"count":5799,"max":[0.9956053495407104,0.9965819120407104],"min":[0.004974517039954662,0.0056764427572488785],"type":"VEC2"},{"bufferView":2,"componentType":5126,"count":5799,"max":[0.9999408721923828,0.9995251893997192,0.9988396167755127],"min":[-0.9996883273124695,-0.9995251893997192,-0.9999037384986877],"type":"VEC3"},{"bufferView":3,"componentType":5126,"count":5799,"type":"VEC4"},{"bufferView":4,"componentType":5123,"count":5799,"type":"VEC4"},{"bufferView":5,"componentType":5126,"count":5799,"type":"VEC4"},{"bufferView":6,"componentType":5125,"count":29202,"type":"SCALAR"},{"name":"Bind Matrices","bufferView":7,"componentType":5126,"count":46,"type":"MAT4"},{"bufferView":8,"componentType":5126,"count":292,"max":[4.184298992156982,3.8126442432403564,112.81816101074219],"min":[-0.09186483919620514,-3.8127615451812744,108.54206085205078],"type":"VEC3"},{"bufferView":9,"componentType":5126,"count":292,"max":[0.2449720799922943,0.9165013432502747],"min":[0.0873744934797287,0.8281197547912598],"type":"VEC2"},{"bufferView":10,"componentType":5126,"count":292,"max":[0.9999995231628418,0.9999995231628418,0.9999990463256836],"min":[-0.9999995231628418,-0.9999995231628418,-1],"type":"VEC3"},{"bufferView":11,"componentType":5126,"count":292,"type":"VEC4"},{"bufferView":12,"componentType":5123,"count":292,"type":"VEC4"},{"bufferView":13,"componentType":5126,"count":292,"type":"VEC4"},{"bufferView":14,"componentType":5125,"count":1584,"type":"SCALAR"},{"name":"Bind Matrices","bufferView":15,"componentType":5126,"count":46,"type":"MAT4"}],"bufferViews":[{"buffer":0,"byteLength":69588,"byteOffset":302376,"target":34962},{"buffer":0,"byteLength":46392,"byteOffset":441552,"target":34962},{"buffer":0,"byteLength":69588,"byteOffset":371964,"target":34962},{"buffer":0,"byteLength":92784,"byteOffset":116808,"target":34962},{"buffer":0,"byteLength":46392,"byteOffset":487944,"byteStride":8,"target":34962},{"buffer":0,"byteLength":92784,"byteOffset":209592,"target":34962},{"buffer":0,"byteLength":116808,"target":34963},{"buffer":0,"byteLength":2944,"byteOffset":557024},{"buffer":0,"byteLength":3504,"byteOffset":550016,"target":34962},{"buffer":0,"byteLength":2336,"byteOffset":562912,"target":34962},{"buffer":0,"byteLength":3504,"byteOffset":553520,"target":34962},{"buffer":0,"byteLength":4672,"byteOffset":540672,"target":34962},{"buffer":0,"byteLength":2336,"byteOffset":565248,"byteStride":8,"target":34962},{"buffer":0,"byteLength":4672,"byteOffset":545344,"target":34962},{"buffer":0,"byteLength":6336,"byteOffset":534336,"target":34963},{"buffer":0,"byteLength":2944,"byteOffset":559968}],"buffers":[{"byteLength":567584,"uri":"donor.bin"}],"meshes":[{"extras":{},"name":"C:\\TestCode\\Abrams\\tools\\Reduced_CSDK_12\\game\\citadel_addons\\sulley_fullbody\\models\\heroes_wip\\abrams\\sulley_donor.vmdl_c.body","primitives":[{"attributes":{"POSITION":0,"TEXCOORD_0":1,"NORMAL":2,"TANGENT":3,"JOINTS_0":4,"WEIGHTS_0":5},"indices":6}]},{"extras":{},"name":"C:\\TestCode\\Abrams\\tools\\Reduced_CSDK_12\\game\\citadel_addons\\sulley_fullbody\\models\\heroes_wip\\abrams\\sulley_donor.vmdl_c.face","primitives":[{"attributes":{"POSITION":8,"TEXCOORD_0":9,"NORMAL":10,"TANGENT":11,"JOINTS_0":12,"WEIGHTS_0":13},"indices":14}]}],"nodes":[{"name":"C:\\TestCode\\Abrams\\tools\\Reduced_CSDK_12\\game\\citadel_addons\\sulley_fullbody\\models\\heroes_wip\\abrams\\sulley_donor.vmdl_c","children":[1],"matrix":[3.027916E-09,0,0.025399996,0,0.025399996,3.027916E-09,0,0,0,0.025399996,3.027916E-09,0,0,0,0,1]},{"name":"pelvis","children":[2,35,39,43],"rotation":[0.50000006,0.49999994,0.50000006,-0.5],"translation":[-4.219959,1.2302851E-05,65.17322]},{"name":"spine_0","children":[3],"rotation":[-6.036249E-08,1.00612745E-08,0.029813698,0.99955547],"translation":[1.0300522,0.30385852,5.927359E-08]},{"name":"spine_1","children":[4],"rotation":[5.9318868E-08,-1.010436E-08,-0.09780046,0.99520606],"translation":[7.287323,3.528595E-05,-7.841387E-06]},{"name":"spine_3","children":[5,19,33],"rotation":[-7.42721E-15,2.6610136E-08,0.16333187,0.9865712],"translation":[16.893982,-0.22030354,-1.6115164E-05]},{"name":"clavicle_L","children":[6],"rotation":[0.0366376,-0.8038731,-0.13961829,0.5770203],"translation":[5.9253235,3.1746082,1.7692032]},{"name":"arm_upper_L","children":[7,18],"rotation":[0.10418516,-0.3325605,0.12848796,0.928461],"translation":[14.265871,0.0010461807,0.009727478]},{"name":"arm_lower_L","children":[8,17],"rotation":[-8.633089E-07,-1.2040007E-06,0.22057767,0.9753694],"translation":[18.621502,0.0029888153,0.011875153]},{"name":"hand_L","children":[9,11,13,15],"rotation":[0.7455812,-0.0363974,0.034886833,0.66450495],"translation":[20.110954,-0.003279686,0.022972107]},{"name":"finger_thumb_0_L","children":[10],"rotation":[0.680903,0.4630629,0.0046053496,0.56738216],"translation":[1.0638046,0.4547119,-2.670412]},{"name":"finger_thumb_1_L","rotation":[1.8088753E-05,1.1171152E-05,0.02888075,0.9995829],"translation":[3.6066399,-0.00040245056,0.00023841858]},{"name":"finger_index_0_L","children":[12],"rotation":[0.08612892,0.1908723,0.109811045,0.9716435],"translation":[6.683275,-0.37030792,-3.062674]},{"name":"finger_index_1_L","rotation":[3.9883744E-06,3.6289564E-06,0.2643414,0.9644292],"translation":[4.388508,-0.0005760193,0.00030708313]},{"name":"finger_middle_0_L","children":[14],"rotation":[-0.053566564,0.024249233,0.10161252,0.9930848],"translation":[6.9705734,-0.5029373,-1.1785759]},{"name":"finger_middle_1_L","rotation":[8.2163587E-07,1.3512207E-06,0.2895317,0.95716846],"translation":[4.722088,-0.0005378723,1.9073486E-06]},{"name":"finger_pinky_0_L","children":[16],"rotation":[-0.22927241,-0.24162357,0.14643484,0.9314553],"translation":[6.187435,0.77059174,2.4707828]},{"name":"finger_pinky_1_L","rotation":[-4.840044E-06,-3.7789137E-06,0.18560435,0.98262453],"translation":[3.4221573,-0.00061416626,-0.00039625168]},{"name":"arm_lower_L_TWIST1","rotation":[5.962139E-08,2.7947529E-08,9.166789E-07,1],"translation":[13.41312,-0.0030794144,0.021701813]},{"name":"arm_upper_L_TWIST1","rotation":[2.9620605E-07,-9.958532E-07,3.334647E-07,1],"translation":[12.418903,0.0029773712,0.01184845]},{"name":"clavicle_R","children":[20],"rotation":[0.8038746,0.036637552,0.5770182,0.13961837],"translation":[5.9255447,3.174574,-1.769196]},{"name":"arm_upper_R","children":[21,32],"rotation":[0.104185626,-0.3325584,0.12848794,0.9284617],"translation":[-14.265828,-0.00095939636,-0.008666992]},{"name":"arm_lower_R","children":[22,31],"rotation":[-7.315065E-07,-1.1146878E-06,0.22057775,0.9753694],"translation":[-18.620544,-0.002585411,-0.010349274]},{"name":"hand_R","children":[23,25,27,29],"rotation":[0.7455815,-0.03639657,0.034885895,0.6645047],"translation":[-20.109673,0.0027441978,-0.019412994]},{"name":"finger_thumb_0_R","children":[24],"rotation":[0.6809025,0.4630637,0.004603721,0.56738216],"translation":[-1.059269,-0.44787598,2.6710587]},{"name":"finger_thumb_1_R","rotation":[1.5727706E-05,1.0616947E-05,0.02888152,0.9995829],"translation":[-3.6074562,0.00026893616,-0.00012779236]},{"name":"finger_index_0_R","children":[26],"rotation":[0.08612809,0.19087288,0.10981102,0.97164345],"translation":[-6.6841526,0.36979675,3.0628755]},{"name":"finger_index_1_R","rotation":[3.4238349E-06,2.6702817E-06,0.26434326,0.96442866],"translation":[-4.388809,0.00032043457,-0.0002670288]},{"name":"finger_middle_0_R","children":[28],"rotation":[-0.053567756,0.024249386,0.10161241,0.9930848],"translation":[-6.9714108,0.50253296,1.1785967]},{"name":"finger_middle_1_R","rotation":[6.891814E-07,7.865234E-07,0.2895344,0.9571676],"translation":[-4.7224236,0.0002784729,-1.6212463E-05]},{"name":"finger_pinky_0_R","children":[30],"rotation":[-0.22927366,-0.24162455,0.1464352,0.9314547],"translation":[-6.1881943,-0.7710953,-2.4709663]},{"name":"finger_pinky_1_R","rotation":[-3.5652442E-06,-3.2769904E-06,0.18560585,0.9826243],"translation":[-3.4223785,0.0004348755,0.00032782555]},{"name":"arm_lower_R_TWIST1","rotation":[2.9809495E-08,7.8249926E-08,7.005232E-07,1],"translation":[-13.411568,0.0026302338,-0.018604279]},{"name":"arm_upper_R_TWIST1","rotation":[2.6266827E-07,-1.3963563E-06,2.9247457E-07,1],"translation":[-12.41769,-0.0025596619,-0.01033783]},{"name":"neck_0","children":[34],"rotation":[7.109038E-15,5.192132E-09,0.031868972,0.9994921],"translation":[7.4755173,0.0012054443,-5.3841995E-07]},{"name":"head","rotation":[1.7797697E-14,-2.0764999E-08,-0.12745465,0.9918444],"translation":[8.928345,-0.00017166138,-8.194947E-06]},{"name":"leg_upper_L","children":[36],"rotation":[0.06762452,-0.12539266,0.98797697,0.06004302],"translation":[-4.671936,0.6685903,6.1168]},{"name":"leg_lower_L","children":[37],"rotation":[9.805043E-08,-1.1737768E-07,0.1554712,0.9878404],"translation":[25.699585,-5.722046E-06,-0.00010871887]},{"name":"ankle_L","children":[38],"rotation":[0.86265355,-0.5014159,-0.04540036,0.048473727],"translation":[27.045101,-8.010864E-05,-0.00024986267]},{"name":"ball_L","rotation":[0.00649474,-0.022809682,0.40036812,0.91604745],"translation":[11.05747,-9.059906E-05,0.0003938675]},{"name":"leg_upper_R","children":[40],"rotation":[-0.12539323,-0.06762438,-0.060042787,0.9879769],"translation":[-4.6719437,0.66858983,-6.116795]},{"name":"leg_lower_R","children":[41],"rotation":[-6.410989E-08,2.0741435E-08,0.15547128,0.9878405],"translation":[-25.699585,-5.1498413E-05,0.000102996826]},{"name":"ankle_R","children":[42],"rotation":[0.86265355,-0.5014162,-0.045399982,0.048471756],"translation":[-27.044949,0.00031995773,0.00024795532]},{"name":"ball_R","rotation":[0.006492999,-0.022809584,0.40036774,0.91604763],"translation":[-11.057497,6.151199E-05,-0.0003271103]},{"name":"tail_0","children":[44],"rotation":[1.1559833E-07,2.5183589E-08,0.9267543,-0.375668],"translation":[2.7050629,-8.082218,5.6153294E-07]},{"name":"tail_4","children":[45],"rotation":[-2.6020492E-08,-3.9938275E-08,-0.31311372,0.9497157],"translation":[15.69178,-6.5283356,-1.4954756E-05]},{"name":"tail_8","children":[46],"rotation":[-5.9487498E-08,-6.4715526E-09,0.062640116,0.99803615],"translation":[17.271122,0.4175911,3.3811248E-06]},{"name":"tail_12","rotation":[8.8736066E-08,1.9193452E-08,0.30149955,0.9534663],"translation":[16.911236,3.141388,-1.2429608E-05]},{"name":"C:\\TestCode\\Abrams\\tools\\Reduced_CSDK_12\\game\\citadel_addons\\sulley_fullbody\\models\\heroes_wip\\abrams\\sulley_donor.vmdl_c.body","mesh":0,"skin":0},{"name":"C:\\TestCode\\Abrams\\tools\\Reduced_CSDK_12\\game\\citadel_addons\\sulley_fullbody\\models\\heroes_wip\\abrams\\sulley_donor.vmdl_c.face","mesh":1,"skin":1}],"samplers":[{"magFilter":9729,"minFilter":9987}],"scenes":[{"name":"sulley_donor.vmdl_c","nodes":[0,47,48]}],"skins":[{"inverseBindMatrices":7,"joints":[1,2,3,4,5,19,6,20,7,21,35,39,43,8,22,36,40,44,33,9,11,13,15,23,25,27,29,37,41,45,34,10,12,14,16,17,18,24,26,28,30,31,32,38,42,46]},{"inverseBindMatrices":15,"joints":[1,2,3,4,5,19,6,20,7,21,35,39,43,8,22,36,40,44,33,9,11,13,15,23,25,27,29,37,41,45,34,10,12,14,16,17,18,24,26,28,30,31,32,38,42,46]}]}