{"asset":{"copyright":"","generator":"Source 2 Viewer 19.2.0.0 - https://valveresourceformat.github.io","version":"2.0"},"accessors":[{"bufferView":0,"componentType":5126,"count":13772,"max":[38.679988861083984,37.649818420410156,118.00605010986328],"min":[-10.883174896240234,-37.6497917175293,-7.2151336669921875],"type":"VEC3"},{"bufferView":1,"componentType":5126,"count":13772,"max":[1,1,1],"min":[-1,-1,-1],"type":"VEC3"},{"bufferView":2,"componentType":5126,"count":13772,"max":[1,1],"min":[-0.155312642455101,-0.14430266618728638],"type":"VEC2"},{"bufferView":3,"componentType":5125,"count":72228,"type":"SCALAR"}],"bufferViews":[{"buffer":0,"byteLength":165264,"byteOffset":288912,"target":34962},{"buffer":0,"byteLength":165264,"byteOffset":454176,"target":34962},{"buffer":0,"byteLength":110176,"byteOffset":619440,"target":34962},{"buffer":0,"byteLength":288912,"target":34963}],"buffers":[{"byteLength":729616,"uri":"abrams_physics.bin"}],"meshes":[{"name":"physics_group","primitives":[{"attributes":{"POSITION":0,"NORMAL":1,"TEXCOORD_0":2},"indices":3}]}],"nodes":[{"extras":{"SurfaceProperty":"default","InteractAs":[]},"name":"physics_group","matrix":[3.027916E-09,0,0.025399996,0,0.025399996,3.027916E-09,0,0,0,0.025399996,3.027916E-09,0,0,0,0,1],"mesh":0}],"samplers":[{"magFilter":9729,"minFilter":9987}],"scenes":[{"name":"abrams.vmdl_c","nodes":[0]}]}